<svg version="1.1" xmlns="http://www.w3.org/2000/svg" xmlns:xlink="http://www.w3.org/1999/xlink" width="434" height="171.52386" viewBox="0,0,434,171.52386"><g transform="translate(95.5,-130.97614)"><g data-paper-data="{&quot;isPaintingLayer&quot;:true}" fill-rule="nonzero" stroke-linejoin="miter" stroke-miterlimit="10" stroke-dasharray="" stroke-dashoffset="0" style="mix-blend-mode: normal"><path d="M233.24671,229.02388v-98.04773h13.50658v98.04773z" fill="#ffffff" stroke="none" stroke-width="0" stroke-linecap="butt"/><path d="M191.00066,173.07106l98.0471,0.35142l-0.04841,13.50649l-98.0471,-0.35142z" fill="#ffffff" stroke="none" stroke-width="0" stroke-linecap="butt"/><path d="M298.5,194.50001l-60,10l28,-24" fill="none" stroke="none" stroke-width="0" stroke-linecap="round"/><path d="M283.5,213.50001l55,64" fill="none" stroke="none" stroke-width="0" stroke-linecap="round"/><path d="M236.5,208.50001l-332,-35" fill="none" stroke="none" stroke-width="0" stroke-linecap="round"/><path d="M188.5,214.50001l71,88" fill="none" stroke="none" stroke-width="0" stroke-linecap="round"/><path d="M254.79479,180c0,7.97164 -6.62385,14.43394 -14.79479,14.43394c-8.17093,0 -14.79479,-6.46229 -14.79479,-14.43394c0,-7.97164 6.62385,-14.43394 14.79479,-14.43394c8.17093,0 14.79479,6.46229 14.79479,14.43394z" fill="#ffffff" stroke="#ffffff" stroke-width="2" stroke-linecap="butt"/></g></g></svg>